<svg width="90" height="90" viewBox="0 0 90 90" fill="none" xmlns="http://www.w3.org/2000/svg">
<g clip-path="url(#clip0_2047_64)">
<path d="M73.5637 2.09326H16.0845C7.36993 2.09326 0.324097 9.1391 0.324097 17.8537V73.1078C0.324097 81.8224 7.36993 88.8683 16.0845 88.8683H73.5637C82.2783 88.8683 89.3241 81.8224 89.3241 73.1078V17.8537C89.3241 9.1391 82.2783 2.09326 73.5637 2.09326ZM46.6783 63.2808H38.9278C38.6683 63.3216 38.4087 63.1324 38.3345 62.8728L35.2937 54.0099H21.4987L18.6803 62.7616C18.6062 63.0953 18.3095 63.3178 17.9758 63.2808H11.0041C10.5962 63.2808 10.4849 63.0583 10.5962 62.6133L22.537 28.3483C22.6483 27.9774 22.7595 27.5695 22.9078 27.1245C23.0933 26.3458 23.2045 25.567 23.2045 24.7512C23.1674 24.5658 23.3158 24.3803 23.5012 24.3433H33.1058C33.3653 24.3433 33.5508 24.4545 33.5878 24.6399L47.0491 62.6911C47.1603 63.0953 47.0491 63.2808 46.6783 63.2808ZM75.4178 63.3216H69.0358C68.8911 63.3346 68.7459 63.3023 68.6204 63.2293C68.4948 63.1562 68.3951 63.0459 68.3349 62.9136C68.2608 62.617 68.1866 62.2795 68.1087 61.9866C68.0346 61.727 68.0346 61.4674 68.0346 61.2078C66.8479 62.2795 65.4016 63.062 63.8441 63.5033C62.5091 63.8778 61.1037 64.0595 59.7279 64.0595C58.3595 64.0595 56.9837 63.8741 55.6858 63.4291C54.4832 63.0192 53.4004 62.3186 52.5337 61.3895C51.5696 60.3512 50.865 59.1274 50.4533 57.7924C49.9313 56.087 49.6822 54.3098 49.7154 52.5266V34.1333C49.706 34.077 49.7082 34.0193 49.7221 33.964C49.7359 33.9086 49.761 33.8567 49.7958 33.8115C49.8306 33.7662 49.8744 33.7286 49.9243 33.7011C49.9743 33.6735 50.0294 33.6565 50.0862 33.6512H57.2767C57.5029 33.6141 57.7254 33.7624 57.7625 34.022V51.5661C57.7625 53.1941 58.1333 54.492 58.8342 55.4191C59.5425 56.3462 60.985 56.832 62.6575 56.832C63.5067 56.832 64.3596 56.6799 65.1791 56.3833C66.0321 56.0866 66.8071 55.6824 67.5154 55.1595V34.0591C67.5154 33.7995 67.7008 33.6512 68.0346 33.6512H75.1175C75.3066 33.6141 75.5217 33.7624 75.5217 33.9478V56.7912C75.5217 57.7961 75.5217 58.6861 75.5625 59.4612C75.5995 60.2436 75.6403 60.9111 75.6737 61.5045C75.7479 62.0978 75.7813 62.4316 75.8183 62.8358C75.8628 63.1695 75.7145 63.3216 75.4178 63.3216ZM31.2145 40.7712C30.8437 39.6216 30.5099 38.5091 30.1391 37.3595C29.7683 36.2099 29.4345 35.1345 29.1378 34.0591C28.8412 33.0208 28.5816 32.0566 28.322 31.1666H28.2478C27.9141 32.7612 27.5062 34.3558 26.987 35.9503C26.4308 37.7303 25.8745 39.5845 25.2812 41.4387C24.7991 43.3299 24.2058 45.0728 23.6495 46.6303H33.0687C32.8462 45.8516 32.5495 44.9245 32.2158 43.9603C31.882 42.9591 31.5483 41.8837 31.2145 40.7712Z" fill="#00FFD9"/>
</g>
<defs>
<clipPath id="clip0_2047_64">
<rect width="89" height="89" fill="white" transform="translate(0.324097 0.980713)"/>
</clipPath>
</defs>
</svg>
