<svg width="68" height="90" viewBox="0 0 68 90" fill="none" xmlns="http://www.w3.org/2000/svg">
<path d="M17.1949 0.493652H26.755V4.49124H21.1925V8.48882H26.755V12.4864H17.1949V0.493652ZM28.6648 0.493652H38.2286V3.97207H32.6661V4.66553H38.2286V12.6607H28.6648V9.01169H34.2273V8.31453H28.6648V0.493652ZM40.1421 0.493652H49.6985V3.97207H44.136V4.66553H49.6985V12.6607H40.1421V9.01169H45.7046V8.31453H40.1421V0.493652Z" fill="#00FFD9"/>
<path fill-rule="evenodd" clip-rule="evenodd" d="M33.8416 89.4936L8.09096 82.344L0.5 17.9858H67.25L59.6628 82.3366L33.8416 89.4936ZM15.5076 47.1185L16.2159 55.0098H43.5723L42.6563 65.2448L33.8528 67.6256H33.8453L25.0566 65.2523L24.4929 58.9592H16.5682L17.6733 71.3525L33.8416 75.8396L50.0359 71.3525L52.0087 49.236L52.2016 47.1185L53.6256 31.1393H14.0873L14.8067 39.0343H44.9777L44.2583 47.1185H15.5076Z" fill="#00FFD9"/>
</svg>
