<svg width="40" height="38" viewBox="0 0 40 38" fill="none" xmlns="http://www.w3.org/2000/svg">
<path d="M19.6678 26.8574C19.7072 26.9078 19.7577 26.9486 19.8152 26.9767C19.8728 27.0047 19.936 27.0193 20 27.0193C20.064 27.0193 20.1272 27.0047 20.1848 26.9767C20.2423 26.9486 20.2928 26.9078 20.3322 26.8574L26.2385 19.385C26.4547 19.1107 26.2596 18.7047 25.9062 18.7047H21.9986V0.859375C21.9986 0.627344 21.8088 0.4375 21.5768 0.4375H18.4127C18.1807 0.4375 17.9908 0.627344 17.9908 0.859375V18.6994H14.0938C13.7404 18.6994 13.5453 19.1055 13.7615 19.3797L19.6678 26.8574ZM39.3008 25.0117H36.1367C35.9047 25.0117 35.7148 25.2016 35.7148 25.4336V33.5547H4.28516V25.4336C4.28516 25.2016 4.09531 25.0117 3.86328 25.0117H0.699219C0.467187 25.0117 0.277344 25.2016 0.277344 25.4336V35.875C0.277344 36.8084 1.03145 37.5625 1.96484 37.5625H38.0352C38.9686 37.5625 39.7227 36.8084 39.7227 35.875V25.4336C39.7227 25.2016 39.5328 25.0117 39.3008 25.0117Z" fill="#00FFD9"/>
</svg>
