<svg width="68" height="90" viewBox="0 0 68 90" fill="none" xmlns="http://www.w3.org/2000/svg">
<path d="M8.21332 0.493652H12.2257V4.45786H15.897V0.493652H19.9094V12.4938H15.897V8.47769H12.2257V12.4938H8.21703V0.493652H8.21332ZM25.1827 4.47269H21.6523V0.493652H32.7291V4.47269H29.1951V12.4938H25.1827V4.47269ZM34.4869 0.493652H38.6699L41.2434 4.71003L43.8133 0.493652H47.9963V12.4938H44.0024V6.54565L41.2434 10.8139H41.173L38.4103 6.54936V12.4938H34.4869V0.493652ZM49.9914 0.493652H54.0075V8.52961H59.6442V12.4975H49.9914V0.493652Z" fill="#00FFD9"/>
<path fill-rule="evenodd" clip-rule="evenodd" d="M8.08725 82.344L0.5 17.9858H67.25L59.659 82.3366L33.8379 89.4936L8.08725 82.344ZM23.4286 47.1148L22.7092 39.0306H52.9136L53.6182 31.1393H14.0873L16.2159 55.0098H43.5723L42.6563 65.2448L33.8528 67.6256H33.8453L25.0566 65.2523L24.4929 58.9592H16.5645L17.6696 71.3525L33.8379 75.8396L50.0322 71.3525L52.005 49.236L52.1979 47.1185H23.4286V47.1148Z" fill="#00FFD9"/>
</svg>
