<svg width="68" height="90" viewBox="0 0 68 90" fill="none" xmlns="http://www.w3.org/2000/svg">
<path d="M42.9883 57.8252C40.2233 58.1515 37.4379 57.5381 34.9452 56.0541C34.3803 55.5077 33.9139 54.8269 33.5748 54.0539C33.2358 53.2808 33.0313 52.4319 32.974 51.5595C32.973 51.429 32.9507 51.3001 32.9083 51.18C32.8659 51.06 32.8043 50.9514 32.727 50.8604C32.6498 50.7693 32.5583 50.6977 32.4581 50.6497C32.3578 50.6017 32.2506 50.5782 32.1428 50.5805C30.9782 50.5662 29.8136 50.5662 28.649 50.5805C28.4459 50.5555 28.2428 50.6284 28.0838 50.7833C27.9248 50.9382 27.8226 51.1628 27.7995 51.4082C27.7335 52.9383 27.9475 54.4672 28.4262 55.8857C28.9049 57.3042 29.6365 58.5773 30.5688 59.6141C32.9225 61.8384 35.781 63.1409 38.7626 63.3477C41.8694 63.783 45.0134 63.6208 48.0782 62.8671C50.4312 62.3362 52.5886 60.9299 54.2494 58.8443C55.1677 57.4745 55.7832 55.8447 56.0379 54.108C56.2927 52.3713 56.1784 50.5847 55.7057 48.9162C55.3093 47.7399 54.6955 46.6891 53.9114 45.8444C53.1273 44.9998 52.1937 44.3836 51.1822 44.0434C46.4747 42.0408 41.3848 42.1966 36.5818 40.6747C35.7469 40.3632 34.7282 40.0161 34.3568 38.948C34.142 38.1964 34.1272 37.3823 34.3146 36.62C34.5019 35.8577 34.8819 35.1857 35.4012 34.6982C36.9103 33.6544 38.6288 33.1368 40.3661 33.203C42.7205 32.936 45.0937 33.3477 47.2912 34.4045C47.9518 34.8745 48.52 35.5128 48.9563 36.2751C49.3926 37.0374 49.6865 37.9054 49.8178 38.819C49.8238 39.0892 49.9132 39.3468 50.0684 39.5412C50.2236 39.7356 50.4333 39.8526 50.6563 39.8692C51.8111 39.8959 52.9659 39.8737 54.1243 39.8781C54.3248 39.9066 54.5269 39.8467 54.6938 39.7094C54.8607 39.572 54.981 39.3665 55.0327 39.1305C55.0428 37.2436 54.6453 35.3862 53.8796 33.7424C53.1139 32.0986 52.0066 30.7253 50.6673 29.7587C46.9716 27.6942 42.8695 26.9337 38.8325 27.5648C35.8746 27.7122 33.0487 29.0872 30.8299 31.4586C29.8118 32.7874 29.1224 34.4354 28.8403 36.215C28.5581 37.9945 28.6944 39.8342 29.2338 41.5246C29.6538 42.6573 30.2717 43.6663 31.045 44.4822C31.8183 45.2981 32.7286 45.9014 33.7132 46.2506C38.4096 48.3021 43.5547 47.6435 48.2915 49.4591C49.2183 49.8373 50.2922 50.4203 50.5754 51.6619C50.7274 52.4074 50.7158 53.1881 50.5416 53.9266C50.3674 54.665 50.0368 55.3355 49.5824 55.8716C47.6117 57.3538 45.302 58.0381 42.9883 57.8252ZM64.3888 20.2444C55.224 13.9728 46.0555 7.70562 36.8833 1.4429C35.9635 0.820463 34.9271 0.493652 33.8732 0.493652C32.8192 0.493652 31.7829 0.820463 30.863 1.4429L3.46054 20.1688C2.57157 20.754 1.82824 21.6164 1.30765 22.6666C0.787066 23.7167 0.508204 24.9162 0.5 26.1408V63.8551C0.515044 65.1023 0.808793 66.3214 1.35009 67.383C1.89139 68.4446 2.66005 69.3091 3.57455 69.8849C6.19673 71.6115 8.74537 73.5161 11.419 75.1315C12.961 76.1285 14.6736 76.6777 16.4213 76.7357C18.1689 76.7936 19.9038 76.3587 21.4886 75.4653C22.6747 74.5667 23.6399 73.2996 24.2835 71.796C24.9271 70.2924 25.2256 68.6074 25.1478 66.9167C25.1662 54.4699 25.1478 42.023 25.1552 29.5807C25.1735 29.4444 25.1677 29.305 25.1383 29.1717C25.109 29.0383 25.0566 28.914 24.9847 28.8068C24.9128 28.6997 24.823 28.6121 24.7212 28.5499C24.6194 28.4877 24.5079 28.4523 24.3939 28.4459C23.2257 28.4297 22.0573 28.4297 20.8891 28.4459C20.7813 28.4346 20.6728 28.4509 20.5705 28.4937C20.4683 28.5364 20.3746 28.6047 20.2955 28.6941C20.2165 28.7834 20.1538 28.8919 20.1116 29.0124C20.0694 29.133 20.0486 29.2629 20.0506 29.3938C20.0359 41.7605 20.0543 54.1272 20.0432 66.4984C20.0453 67.3521 19.8315 68.1862 19.4305 68.8886C19.0295 69.591 18.4605 70.1281 17.7998 70.4278C17.0395 70.6998 16.2403 70.7747 15.4545 70.6474C14.6687 70.5201 13.9139 70.1935 13.2395 69.6891L5.95033 64.705C5.78914 64.613 5.65514 64.4635 5.56636 64.2765C5.47759 64.0895 5.43832 63.8741 5.45384 63.6592V26.3366C5.43716 26.0947 5.48399 25.8526 5.58767 25.6449C5.69135 25.4371 5.84658 25.2743 6.03124 25.1795C15.1347 18.9732 24.237 12.7624 33.3381 6.54712C33.4961 6.41586 33.6833 6.3456 33.875 6.3456C34.0667 6.3456 34.2539 6.41586 34.4119 6.54712L61.7224 25.1751C61.9054 25.2722 62.0589 25.4357 62.1617 25.643C62.2645 25.8503 62.3115 26.0911 62.2962 26.3321V63.6592C62.3117 63.8753 62.273 64.092 62.185 64.281C62.0971 64.4699 61.9641 64.6224 61.8033 64.7184C52.8396 70.8535 43.8697 76.9798 34.8937 83.0971C34.4671 83.3819 33.9596 83.8492 33.4594 83.4976C31.1057 81.8867 28.7888 80.2135 26.4424 78.5892C26.3226 78.478 26.178 78.4127 26.0273 78.4016C25.8766 78.3905 25.7266 78.4341 25.5965 78.5269C24.5649 79.259 23.4789 79.8728 22.3528 80.3603C21.8453 80.6095 21.2201 80.6807 20.8707 81.2504C21.3172 81.8362 21.8578 82.3056 22.4595 82.6299L30.6828 88.3838C31.5897 89.0726 32.6326 89.4549 33.703 89.4909C34.7734 89.5269 35.8322 89.2153 36.7693 88.5885C45.9047 82.3584 55.0401 76.1224 64.1755 69.8804C65.0886 69.3039 65.8563 68.4398 66.3974 67.3793C66.9386 66.3188 67.2331 65.1012 67.25 63.8551V26.1408C67.2414 24.9409 66.9726 23.7647 66.4705 22.73C65.9684 21.6952 65.2505 20.8381 64.3888 20.2444Z" fill="#00FFD9"/>
</svg>
