<svg width="105" height="64" viewBox="0 0 105 64" fill="none" xmlns="http://www.w3.org/2000/svg">
<g clip-path="url(#clip0_2100_104)">
<path d="M52.2407 63.6688H103.79L78.0138 46.5919L52.2407 63.6688Z" stroke="#00FFD9" stroke-miterlimit="10"/>
<path d="M78.0138 55.4552L52.2407 63.6688" stroke="#00FFD9" stroke-miterlimit="10"/>
<path d="M78.0138 46.5919V55.6347" stroke="#00FFD9" stroke-miterlimit="10"/>
<path d="M103.79 63.6688L78.0138 55.4552" stroke="#00FFD9" stroke-miterlimit="10"/>
<path d="M77.7457 46.5919H26.1968L51.9726 63.6688L77.7457 46.5919Z" stroke="#00FFD9" stroke-miterlimit="10"/>
<path d="M51.9725 54.8055L77.7456 46.5919" stroke="#00FFD9" stroke-miterlimit="10"/>
<path d="M51.9725 63.6688V54.626" stroke="#00FFD9" stroke-miterlimit="10"/>
<path d="M26.1995 46.5919L51.9726 54.8055" stroke="#00FFD9" stroke-miterlimit="10"/>
<path d="M0.423645 63.6663H51.9725L26.1967 46.5894L0.423645 63.6663Z" stroke="#00FFD9" stroke-miterlimit="10"/>
<path d="M26.1994 55.4527L0.423645 63.6663" stroke="#00FFD9" stroke-miterlimit="10"/>
<path d="M26.1995 46.5894V55.6322" stroke="#00FFD9" stroke-miterlimit="10"/>
<path d="M51.9726 63.6663L26.1995 55.4527" stroke="#00FFD9" stroke-miterlimit="10"/>
<path d="M103.977 63.6511L86.7362 17.8505L78.29 46.4604L103.977 63.6511Z" stroke="#00FFD9" stroke-miterlimit="10"/>
<path d="M87.1464 43.4976L103.977 63.6511" stroke="#00FFD9" stroke-miterlimit="10"/>
<path d="M78.2873 46.4604L87.3261 43.4369" stroke="#00FFD9" stroke-miterlimit="10"/>
<path d="M86.7362 17.8505L87.1465 43.4975" stroke="#00FFD9" stroke-miterlimit="10"/>
<path d="M17.7049 17.8632L0.466553 63.6663L26.1565 46.4756L17.7049 17.8632Z" stroke="#00FFD9" stroke-miterlimit="10"/>
<path d="M17.2974 43.5127L17.7076 17.8632" stroke="#00FFD9" stroke-miterlimit="10"/>
<path d="M26.1566 46.4756L17.1177 43.452" stroke="#00FFD9" stroke-miterlimit="10"/>
<path d="M0.466553 63.6663L17.2974 43.5127" stroke="#00FFD9" stroke-miterlimit="10"/>
<path d="M26.4273 46.3416L43.057 0.336243L17.6003 17.8303L26.4273 46.3416Z" stroke="#00FFD9" stroke-miterlimit="10"/>
<path d="M26.4964 20.6895L26.4274 46.3416" stroke="#00FFD9" stroke-miterlimit="10"/>
<path d="M17.5977 17.8303L26.6767 20.7477" stroke="#00FFD9" stroke-miterlimit="10"/>
<path d="M43.0571 0.338745L26.4971 20.6895" stroke="#00FFD9" stroke-miterlimit="10"/>
<path d="M60.8799 0.485413L78.1585 46.2734L86.5833 17.6559L60.8799 0.485413Z" stroke="#00FFD9" stroke-miterlimit="10"/>
<path d="M77.7268 20.6264L60.8799 0.485413" stroke="#00FFD9" stroke-miterlimit="10"/>
<path d="M86.5834 17.6559L77.5472 20.687" stroke="#00FFD9" stroke-miterlimit="10"/>
<path d="M78.1586 46.2734L77.7269 20.6263" stroke="#00FFD9" stroke-miterlimit="10"/>
</g>
<defs>
<clipPath id="clip0_2100_104">
<rect width="104.245" height="64" fill="white"/>
</clipPath>
</defs>
</svg>
