<svg width="44" height="44" viewBox="0 0 44 44" fill="none" xmlns="http://www.w3.org/2000/svg">
<path d="M18.9875 9.99998L11.9395 1.86456C11.127 0.927065 9.63745 0.931231 8.6937 1.87706L2.89787 7.68331C1.17287 9.4104 0.679122 11.975 1.67704 14.0312C7.63874 26.3749 17.5938 36.3439 29.9291 42.3229C31.9833 43.3208 34.5458 42.8271 36.2708 41.1L42.1208 35.2396C43.0687 34.2916 43.0708 32.7937 42.125 31.9812L33.9583 24.9708C33.1041 24.2375 31.777 24.3333 30.9208 25.1916L28.0791 28.0375C27.9336 28.1899 27.7421 28.2905 27.534 28.3236C27.3259 28.3567 27.1127 28.3206 26.927 28.2208C22.2821 25.546 18.4291 21.688 15.7604 17.0396C15.6604 16.8536 15.6242 16.64 15.6574 16.4316C15.6905 16.2231 15.7911 16.0312 15.9437 15.8854L18.777 13.05C19.6354 12.1875 19.7291 10.8541 18.9875 9.9979V9.99998Z" stroke="#00FFD9" stroke-width="2" stroke-linecap="round" stroke-linejoin="round"/>
</svg>
