<svg width="78" height="90" viewBox="0 0 78 90" fill="none" xmlns="http://www.w3.org/2000/svg">
<g clip-path="url(#clip0_2047_61)">
<path d="M37.605 31.9405C35.8976 28.9068 20.672 34.7962 16.765 34.5885C13.3426 34.5885 -0.935989 32.2224 0.398668 14.992C-0.540811 10.9199 11.2623 -6.43653 26.965 4.57072C35.1668 11.5801 32.6765 24.5529 39.7226 27.8684C47.4323 31.5771 56.1262 24.36 63.9925 25.7842C71.8587 27.2083 80.1798 35.9162 76.3772 48.4514C72.5745 60.9866 54.2025 62.1808 47.4397 51.8633C43.1524 44.0603 44.0099 36.428 37.605 31.9405Z" fill="#00FFD9"/>
<path d="M33.8695 89.9882C43.0442 89.9882 50.4818 82.4831 50.4818 73.2251C50.4818 63.9671 43.0442 56.462 33.8695 56.462C24.6947 56.462 17.2571 63.9671 17.2571 73.2251C17.2571 82.4831 24.6947 89.9882 33.8695 89.9882Z" fill="#00FFD9"/>
</g>
<defs>
<clipPath id="clip0_2047_61">
<rect width="77" height="89" fill="white" transform="translate(0.324097 0.980713)"/>
</clipPath>
</defs>
</svg>
