<svg width="83" height="84" viewBox="0 0 83 84" fill="none" xmlns="http://www.w3.org/2000/svg">
<g clip-path="url(#clip0_2082_572)">
<path d="M77.8125 59.0937V20.3586L44.6644 0.993652V15.8662L57.6487 23.4711C58.1623 23.8187 58.1623 24.5086 57.6487 24.685L42.2677 33.6749C41.7542 34.0225 41.2458 33.8461 40.9034 33.6749L25.5225 24.685C25.0089 24.5086 25.0089 23.6475 25.5225 23.4711L38.512 15.8662V0.993652L5.1875 20.3586V59.0937V58.9225V59.0937L17.8346 51.66V36.4398C17.8346 35.9211 18.5142 35.5787 18.8566 35.7499L34.2375 44.7398C34.7511 45.0874 34.9222 45.435 34.9222 45.9537V63.9336C34.9222 64.4523 34.2375 64.7999 33.8951 64.6287L20.9108 57.0187L8.26369 64.4523L41.4118 83.9937L74.5651 64.6287L61.918 57.1898L48.9389 64.7999C48.4253 65.1475 47.9118 64.7999 47.9118 64.11V46.1249C47.9118 45.6062 48.2541 45.0874 48.5965 44.9162L63.9774 35.9211C64.491 35.5787 64.9994 35.9211 64.9994 36.6162V51.8312L77.8125 59.0937Z" fill="#00FFD9"/>
</g>
<defs>
<clipPath id="clip0_2082_572">
<rect width="83" height="83" fill="white" transform="translate(0 0.993652)"/>
</clipPath>
</defs>
</svg>
