<svg width="65" height="65" viewBox="0 0 65 65" fill="none" xmlns="http://www.w3.org/2000/svg">
<path d="M32.5 0C14.5519 0 0 14.5519 0 32.5C0 50.4481 14.5519 65 32.5 65C50.4481 65 65 50.4481 65 32.5C65 14.5519 50.4481 0 32.5 0ZM32.5 4.99958C47.6531 5.01854 59.93 17.309 59.93 32.4648C59.93 47.6342 47.6342 59.93 32.4648 59.93C17.2954 59.93 4.99958 47.6342 4.99958 32.4648C4.99958 24.8815 8.07354 18.0158 13.0433 13.046C15.5938 10.4918 18.6235 8.46639 21.9587 7.08603C25.2938 5.70566 28.8688 4.99754 32.4783 5.00229H32.4973L32.5 4.99958ZM32.5 12.5017C20.605 14.5979 9.99917 25.5667 9.99917 37.4996C15.8194 27.2242 19.7058 26.4848 20.781 26.4848C21.8562 26.4848 22.4223 27.0427 22.4223 28.2804V43.5933C22.4223 45.4973 18.7227 45.1858 17.4985 44.999C22.0215 51.7292 32.5 52.501 32.5 52.501L37.4996 47.5015L42.4992 50.0012C50.3912 46.3883 54.9981 38.6533 54.9981 37.5023C53.0947 39.8723 50.5148 41.6067 47.6017 42.4748L47.496 42.5019C46.8325 42.5019 44.9962 42.1606 44.9962 41.2506V23.1237C44.9962 21.5502 48.6308 16.7483 49.9958 14.9987C40.9717 17.3631 38.3554 21.4825 38.3554 21.4825C38.3554 21.4825 37.6702 19.9983 34.9971 19.9983C36.354 21.2794 37.2667 23.0154 37.4942 24.96L37.4969 24.9979V40.3108C36.021 41.3538 34.3516 42.0914 32.5867 42.4802L32.4946 42.4965C30.7612 42.4965 29.9162 41.7923 29.9162 40.4652C29.9162 39.1381 29.9948 22.4981 29.9948 22.4981C29.9948 22.4981 27.495 23.4162 27.495 18.2785C27.495 15.7083 32.4946 12.4962 32.4946 12.4962L32.5 12.5017Z" fill="#00FFD9"/>
</svg>
