<svg width="42" height="32" viewBox="0 0 42 32" fill="none" xmlns="http://www.w3.org/2000/svg">
<path d="M42 15.8687C42 15.7656 42 15.6484 41.9953 15.5125C41.9906 15.1328 41.9813 14.7062 41.9719 14.2516C41.9344 12.9437 41.8688 11.6406 41.7656 10.4125C41.625 8.72031 41.4187 7.30937 41.1375 6.25C40.8407 5.14445 40.2589 4.13616 39.4503 3.32592C38.6417 2.51567 37.6346 1.93185 36.5297 1.63281C35.2031 1.27656 32.6062 1.05625 28.95 0.920309C27.2109 0.854684 25.35 0.812497 23.4891 0.789059C22.8375 0.779684 22.2328 0.774997 21.6891 0.770309H20.3109C19.7672 0.774997 19.1625 0.779684 18.5109 0.789059C16.65 0.812497 14.7891 0.854684 13.05 0.920309C9.39375 1.06093 6.79219 1.28125 5.47031 1.63281C4.365 1.93112 3.35751 2.51469 2.5488 3.32505C1.74009 4.13541 1.15856 5.14408 0.8625 6.25C0.576563 7.30937 0.375 8.72031 0.234375 10.4125C0.13125 11.6406 0.0656249 12.9437 0.0281249 14.2516C0.0140624 14.7062 0.00937493 15.1328 0.00468743 15.5125C0.00468743 15.6484 0 15.7656 0 15.8687V16.1312C0 16.2344 -7.15954e-08 16.3516 0.00468743 16.4875C0.00937493 16.8672 0.0187499 17.2937 0.0281249 17.7484C0.0656249 19.0562 0.13125 20.3594 0.234375 21.5875C0.375 23.2797 0.58125 24.6906 0.8625 25.75C1.4625 27.9953 3.225 29.7672 5.47031 30.3672C6.79219 30.7234 9.39375 30.9437 13.05 31.0797C14.7891 31.1453 16.65 31.1875 18.5109 31.2109C19.1625 31.2203 19.7672 31.225 20.3109 31.2297H21.6891C22.2328 31.225 22.8375 31.2203 23.4891 31.2109C25.35 31.1875 27.2109 31.1453 28.95 31.0797C32.6062 30.9391 35.2078 30.7187 36.5297 30.3672C38.775 29.7672 40.5375 28 41.1375 25.75C41.4234 24.6906 41.625 23.2797 41.7656 21.5875C41.8688 20.3594 41.9344 19.0562 41.9719 17.7484C41.9859 17.2937 41.9906 16.8672 41.9953 16.4875C41.9953 16.3516 42 16.2344 42 16.1312V15.8687ZM38.625 16.1125C38.625 16.2109 38.625 16.3187 38.6203 16.4453C38.6156 16.8109 38.6063 17.2141 38.5969 17.65C38.5641 18.8969 38.4984 20.1437 38.4 21.3016C38.2734 22.8109 38.0953 24.0484 37.875 24.8781C37.5844 25.9609 36.7312 26.8187 35.6531 27.1047C34.6687 27.3672 32.1891 27.5781 28.8187 27.7047C27.1125 27.7703 25.275 27.8125 23.4422 27.8359C22.8 27.8453 22.2047 27.85 21.6703 27.85H20.3297L18.5578 27.8359C16.725 27.8125 14.8922 27.7703 13.1813 27.7047C9.81094 27.5734 7.32656 27.3672 6.34687 27.1047C5.26875 26.8141 4.41563 25.9609 4.125 24.8781C3.90469 24.0484 3.72656 22.8109 3.6 21.3016C3.50156 20.1437 3.44063 18.8969 3.40313 17.65C3.38906 17.2141 3.38438 16.8062 3.37969 16.4453C3.37969 16.3187 3.375 16.2062 3.375 16.1125V15.8875C3.375 15.7891 3.375 15.6812 3.37969 15.5547C3.38438 15.1891 3.39375 14.7859 3.40313 14.35C3.43594 13.1031 3.50156 11.8562 3.6 10.6984C3.72656 9.18906 3.90469 7.95156 4.125 7.12187C4.41563 6.03906 5.26875 5.18125 6.34687 4.89531C7.33125 4.63281 9.81094 4.42187 13.1813 4.29531C14.8875 4.22968 16.725 4.1875 18.5578 4.16406C19.2 4.15468 19.7953 4.15 20.3297 4.15H21.6703L23.4422 4.16406C25.275 4.1875 27.1078 4.22968 28.8187 4.29531C32.1891 4.42656 34.6734 4.63281 35.6531 4.89531C36.7312 5.18593 37.5844 6.03906 37.875 7.12187C38.0953 7.95156 38.2734 9.18906 38.4 10.6984C38.4984 11.8562 38.5594 13.1031 38.5969 14.35C38.6109 14.7859 38.6156 15.1937 38.6203 15.5547C38.6203 15.6812 38.625 15.7937 38.625 15.8875V16.1125ZM16.8281 22.2812L27.7031 15.9531L16.8281 9.71875V22.2812Z" fill="#00FFD9"/>
</svg>
