<?xml version="1.0" standalone="no"?>
<!DOCTYPE svg PUBLIC "-//W3C//DTD SVG 20010904//EN"
 "http://www.w3.org/TR/2001/REC-SVG-20010904/DTD/svg10.dtd">
<svg version="1.0" xmlns="http://www.w3.org/2000/svg"
 width="840.000000pt" height="840.000000pt" viewBox="0 0 840.000000 840.000000"
 preserveAspectRatio="xMidYMid meet">
<metadata>
Created by potrace 1.14, written by Peter Selinger 2001-2017
</metadata>
<g transform="translate(0.000000,840.000000) scale(0.100000,-0.100000)"
fill="#000000" stroke="none">
<path d="M3093 6542 c-172 -120 -500 -345 -729 -502 -509 -349 -606 -416 -621
-429 -7 -6 -17 -11 -23 -11 -5 0 -10 -3 -10 -8 0 -4 -9 -12 -20 -17 -11 -6
-67 -43 -125 -83 -127 -88 -131 -90 -139 -60 -6 21 -8 20 -20 -15 -8 -21 -21
-46 -29 -55 -8 -9 -13 -22 -10 -28 3 -8 -67 -207 -104 -294 -3 -8 -7 -19 -8
-25 -2 -5 -19 -50 -38 -100 -37 -94 -140 -365 -187 -495 -16 -41 -65 -172
-110 -290 -44 -118 -82 -219 -84 -225 -2 -5 -8 -23 -15 -40 -6 -16 -24 -61
-38 -100 -35 -94 -100 -266 -129 -342 -13 -34 -24 -64 -24 -68 0 -4 -6 -21
-14 -38 -8 -18 -51 -131 -95 -252 -45 -121 -86 -229 -91 -240 -5 -11 -43 -112
-85 -225 -41 -113 -79 -214 -84 -225 -5 -11 -19 -47 -31 -80 -12 -33 -32 -87
-45 -120 -13 -33 -56 -148 -95 -255 -40 -107 -77 -199 -81 -204 -5 -6 -9 -25
-9 -43 l0 -33 4171 0 4172 0 -6 58 c-3 34 -26 109 -57 187 -28 72 -53 135 -54
140 -2 6 -6 19 -10 30 -41 110 -69 183 -76 200 -4 11 -17 45 -28 75 -11 30
-38 102 -60 160 -23 58 -61 159 -85 225 -50 135 -135 362 -144 385 -4 8 -7 17
-8 20 -1 3 -5 12 -8 20 -3 8 -40 107 -82 220 -42 113 -80 214 -85 225 -4 11
-18 47 -30 80 -12 33 -26 69 -30 80 -5 11 -32 83 -60 160 -29 77 -55 149 -60
160 -33 84 -92 238 -120 315 -60 165 -393 1046 -400 1060 -7 11 -10 9 -15 -12
l-7 -27 -32 22 c-17 12 -38 27 -47 32 -9 6 -97 64 -195 130 -98 66 -183 122
-188 124 -5 2 -32 21 -60 42 -28 22 -56 39 -63 39 -6 0 -13 4 -15 8 -1 4 -307
211 -678 459 -371 247 -693 462 -714 477 -25 17 -52 26 -76 26 l-38 0 89 -237
c49 -131 94 -247 99 -258 5 -11 46 -119 91 -240 45 -121 90 -240 99 -265 9
-25 49 -133 89 -240 73 -196 79 -214 99 -260 16 -39 57 -146 96 -255 20 -55
41 -110 47 -123 5 -13 91 -240 190 -505 100 -265 186 -493 192 -507 5 -14 11
-29 13 -35 1 -5 63 -170 137 -365 74 -195 137 -364 141 -376 l6 -21 -2015 0
c-1108 0 -2015 4 -2015 9 0 7 77 227 100 283 22 56 44 116 106 290 37 105 72
201 77 215 6 14 11 30 13 35 1 6 30 87 64 180 63 171 85 235 315 870 69 193
142 393 162 445 19 52 36 100 38 105 1 6 5 19 9 30 28 73 64 173 221 610 97
270 187 518 200 553 l23 62 -46 -1 c-44 -1 -65 -14 -359 -217z m109 -44 c-11
-12 -75 -90 -142 -173 -67 -82 -129 -159 -138 -170 -10 -11 -44 -54 -77 -95
-33 -41 -62 -77 -65 -80 -3 -3 -41 -50 -85 -105 -44 -55 -82 -102 -85 -105 -3
-3 -25 -30 -49 -60 -25 -30 -49 -59 -55 -65 -6 -5 -24 -28 -41 -50 -16 -22
-35 -46 -42 -53 -7 -8 -26 -30 -41 -50 -15 -21 -29 -39 -32 -42 -3 -3 -35 -41
-70 -85 -36 -44 -67 -82 -70 -85 -3 -3 -27 -33 -54 -66 l-49 -62 -41 13 c-315
101 -516 165 -539 171 -27 6 -27 7 -8 23 11 9 164 115 340 236 177 121 499
343 717 493 218 149 400 272 404 272 5 0 10 4 12 8 4 9 136 102 146 102 4 1
22 14 41 30 40 34 52 33 23 -2z m1928 3 c12 -14 99 -71 108 -71 6 0 12 -3 14
-7 3 -8 444 -305 463 -312 5 -2 12 -7 15 -10 3 -4 129 -89 280 -190 151 -100
285 -190 298 -199 12 -10 134 -91 271 -182 137 -91 246 -168 243 -171 -8 -8
-577 -199 -589 -199 -4 1 -25 23 -46 49 -21 27 -46 57 -55 68 -10 10 -118 140
-242 288 -123 149 -227 272 -230 275 -3 3 -25 30 -50 60 -25 30 -49 60 -55 66
-5 6 -28 33 -50 60 -91 110 -116 140 -133 159 -16 18 -81 95 -137 164 -11 13
-48 57 -83 98 -35 40 -55 70 -45 66 10 -4 20 -9 23 -12z m-1874 -171 c-36 -96
-105 -290 -156 -430 -50 -140 -94 -262 -97 -270 -3 -8 -7 -19 -9 -25 -2 -9
-93 -260 -135 -372 -38 -104 -58 -159 -89 -248 -18 -49 -38 -106 -45 -125 -8
-19 -35 -93 -60 -165 -26 -71 -50 -139 -55 -150 -4 -11 -54 -148 -110 -305
-57 -157 -132 -364 -167 -460 -35 -96 -66 -182 -68 -190 -2 -8 -16 -49 -32
-90 -16 -41 -37 -101 -48 -132 -10 -32 -22 -58 -25 -58 -3 0 -4 334 -3 743 2
408 3 808 3 888 l0 147 31 38 c17 22 45 57 62 78 92 114 140 173 155 191 15
19 301 370 360 443 15 18 34 42 42 52 8 10 31 37 50 60 19 24 40 48 45 54 6 6
26 31 45 56 19 25 39 50 45 56 5 6 80 97 165 202 85 105 156 190 157 188 1 -1
-26 -80 -61 -176z m1810 95 c27 -33 51 -62 54 -65 3 -3 25 -30 50 -60 25 -30
49 -60 55 -66 5 -6 26 -30 45 -54 19 -24 42 -51 50 -60 8 -8 57 -67 109 -130
52 -63 97 -117 101 -120 3 -3 25 -30 50 -60 25 -30 47 -57 50 -60 3 -3 24 -27
45 -55 22 -27 45 -54 51 -60 6 -5 42 -48 80 -95 38 -47 74 -90 79 -96 6 -6 27
-30 46 -54 43 -53 53 -65 113 -134 27 -32 58 -69 70 -84 11 -15 26 -33 33 -40
29 -30 32 -62 37 -417 4 -204 9 -509 12 -680 11 -662 11 -739 4 -720 -19 48
-124 324 -140 370 -10 28 -24 64 -31 80 -7 17 -13 35 -15 40 -1 6 -50 136
-109 290 -58 154 -135 359 -171 455 -36 96 -69 184 -74 195 -6 11 -21 49 -33
85 -22 61 -104 276 -277 735 -334 882 -358 948 -342 929 5 -5 31 -36 58 -69z
m1789 -1172 c-4 -16 -8 -32 -9 -38 -1 -5 -5 -15 -8 -21 -4 -6 -9 -21 -11 -35
-5 -26 -136 -475 -168 -575 -11 -33 -21 -69 -24 -80 -2 -10 -15 -57 -30 -104
-14 -47 -28 -94 -30 -105 -3 -11 -21 -72 -40 -135 -20 -63 -37 -122 -39 -130
-2 -8 -32 -109 -66 -225 -34 -115 -64 -217 -66 -225 -18 -72 -73 -242 -74
-230 -4 43 -22 1179 -24 1479 l-1 254 55 19 c30 11 62 21 70 23 8 2 76 24 150
50 74 25 142 48 150 50 8 2 47 15 85 29 89 31 89 31 80 -1z m-5168 -52 c73
-23 134 -41 136 -39 2 2 11 -3 20 -11 10 -7 17 -11 17 -9 0 3 48 -11 108 -31
l107 -36 0 -872 c0 -479 -3 -869 -7 -866 -5 2 -8 10 -8 18 0 8 -14 56 -31 107
-16 51 -32 104 -35 117 -3 14 -8 29 -11 34 -3 5 -9 23 -13 41 -5 17 -40 135
-80 261 -147 472 -202 651 -215 695 -8 25 -51 171 -98 325 -46 154 -87 292
-91 307 l-6 27 37 -13 c21 -7 98 -32 170 -55z m5423 -441 c66 -179 125 -334
130 -345 9 -18 219 -574 261 -690 10 -27 84 -223 164 -435 80 -212 147 -389
149 -395 4 -13 12 -35 46 -125 48 -126 318 -844 325 -865 6 -20 6 -20 -9 -1
-9 11 -26 31 -38 45 -13 14 -57 67 -98 116 -41 50 -80 96 -87 103 -7 7 -29 34
-50 60 -21 26 -40 49 -43 52 -3 3 -25 30 -50 60 -25 30 -57 69 -71 85 -15 17
-119 140 -230 275 -112 135 -208 250 -214 256 -5 6 -26 30 -45 54 -47 59 -140
169 -168 200 -12 14 -33 41 -47 60 l-24 35 -6 375 c-2 206 -7 533 -11 725 -3
193 -6 425 -8 518 -1 92 -1 166 0 164 2 -2 58 -149 124 -327z m-5744 -52 c-3
-205 -9 -537 -12 -738 -3 -201 -6 -435 -8 -521 l-3 -156 -53 -64 c-29 -35 -56
-66 -59 -69 -4 -3 -22 -25 -41 -50 -19 -25 -37 -47 -41 -50 -3 -3 -41 -48 -84
-100 -43 -52 -81 -97 -84 -100 -3 -3 -24 -27 -46 -55 -21 -27 -42 -52 -45 -55
-6 -6 -51 -59 -105 -125 -22 -27 -69 -83 -104 -124 -35 -42 -80 -96 -100 -120
-20 -24 -41 -49 -46 -55 -9 -9 -65 -76 -127 -151 -7 -9 -20 -24 -28 -34 -8 -9
-31 -37 -51 -61 -20 -25 -45 -55 -55 -67 -11 -12 -26 -30 -34 -40 -78 -96 -85
-98 -51 -15 11 26 36 90 55 142 19 52 63 167 96 255 34 88 63 165 64 170 2 6
8 24 15 40 17 44 72 189 131 350 28 77 56 149 61 160 9 21 111 291 159 425 16
41 38 102 51 135 13 33 24 62 24 65 1 3 7 19 14 35 7 17 20 50 28 75 9 25 20
56 26 70 6 14 11 27 12 30 1 3 5 12 8 20 4 8 15 40 26 70 11 30 61 163 111
295 50 132 137 363 193 513 56 149 103 272 105 272 2 0 1 -168 -2 -372z m115
255 c11 -38 25 -81 29 -98 4 -16 47 -158 94 -315 48 -157 89 -294 91 -304 2
-10 9 -33 15 -51 6 -18 13 -41 15 -51 2 -10 38 -134 80 -274 42 -140 100 -338
130 -440 30 -102 63 -213 74 -247 10 -35 16 -65 12 -68 -4 -2 -95 25 -202 61
-107 36 -198 67 -204 68 -5 2 -17 6 -25 9 -8 3 -46 16 -85 28 -38 13 -73 26
-76 31 -3 4 -4 45 -3 91 4 142 21 1278 23 1500 1 70 3 127 6 127 2 0 14 -30
26 -67z m5425 -76 c1 -78 5 -342 9 -587 4 -245 8 -568 8 -719 l2 -274 -275
-92 c-151 -50 -287 -95 -302 -98 l-26 -7 18 53 c11 30 21 65 24 78 3 13 28
101 57 194 28 94 52 177 54 185 2 8 38 130 80 270 42 140 88 293 101 340 109
374 139 475 161 545 13 44 26 87 28 95 2 8 13 46 24 85 12 38 21 71 21 72 0 2
3 3 8 3 4 0 8 -64 8 -143z m-5276 -1733 c124 -42 230 -77 235 -79 6 -1 17 -5
25 -8 8 -3 32 -11 52 -17 21 -6 40 -15 43 -20 3 -5 -279 -199 -627 -431 -348
-233 -730 -488 -848 -567 -118 -79 -224 -149 -235 -154 -20 -11 -20 -11 40 57
6 7 25 30 43 53 19 23 41 50 50 61 10 10 35 40 57 67 22 26 45 52 50 58 6 6
39 47 75 91 35 44 67 82 70 85 3 3 85 100 181 215 96 116 184 221 196 235 12
14 49 59 83 100 34 41 66 77 71 78 5 2 9 10 9 17 0 7 4 15 9 17 4 2 42 44 82
93 100 122 103 125 109 125 2 0 106 -34 230 -76z m5450 -65 c63 -78 132 -160
152 -182 21 -23 40 -50 44 -59 3 -10 9 -18 13 -18 4 0 66 -70 137 -156 71 -86
134 -162 139 -168 6 -6 44 -51 85 -101 41 -49 79 -95 85 -101 5 -6 19 -22 30
-35 260 -312 316 -381 313 -385 -4 -3 -868 570 -919 609 -8 7 -23 17 -32 22
-75 44 -764 511 -760 515 6 8 566 198 583 198 8 1 67 -62 130 -139z m-1145
-100 c2 -3 -71 -28 -163 -57 -92 -29 -243 -77 -337 -107 -93 -30 -327 -104
-520 -165 -192 -61 -357 -114 -365 -117 -8 -3 -19 -7 -25 -9 -5 -1 -91 -28
-190 -59 -160 -51 -183 -56 -210 -46 -16 7 -39 14 -49 16 -18 4 -210 65 -611
195 -120 38 -220 70 -305 95 -3 1 -12 4 -20 8 -8 3 -96 31 -195 62 -99 31
-241 76 -315 100 -74 24 -164 53 -200 63 -61 19 -63 20 -30 24 47 4 3530 1
3535 -3z m-3880 -336 l0 -296 -43 -18 c-23 -10 -45 -18 -47 -18 -7 0 -125 -36
-220 -67 -96 -31 -429 -138 -435 -139 -3 -1 -16 -5 -30 -9 -357 -113 -481
-153 -555 -178 -49 -16 -97 -31 -105 -33 -23 -5 -231 -72 -263 -84 -15 -6 -27
-7 -27 -3 0 4 266 183 591 397 325 215 597 396 604 403 8 6 15 12 17 12 2 0
116 74 253 165 137 91 252 165 255 165 3 0 5 -133 5 -297z m442 64 c186 -123
493 -327 683 -453 190 -126 350 -231 355 -233 6 -2 26 -17 46 -32 20 -16 39
-29 41 -29 2 0 62 -38 132 -85 71 -47 126 -85 124 -85 -2 0 -24 6 -49 14 -55
18 -203 65 -474 151 -115 37 -250 80 -300 96 -49 16 -103 33 -120 38 -89 28
-486 154 -520 166 -22 8 -93 30 -157 50 -65 21 -118 40 -119 44 -1 3 -2 138
-3 299 -1 220 2 291 11 288 6 -3 164 -106 350 -229z m3703 -65 l0 -298 -102
-34 c-57 -18 -108 -35 -114 -36 -7 -1 -38 -11 -70 -22 -33 -11 -117 -38 -189
-61 -71 -22 -184 -58 -250 -79 -66 -22 -142 -46 -170 -55 -27 -8 -156 -49
-285 -90 -201 -65 -500 -159 -550 -175 -8 -2 73 55 180 126 107 72 200 135
205 140 6 5 15 11 21 13 10 4 287 187 949 628 198 132 363 240 368 240 4 1 7
-133 7 -297z m254 191 c88 -60 164 -110 169 -111 4 -2 47 -30 95 -63 48 -32
94 -64 102 -69 8 -5 236 -156 505 -334 270 -178 495 -329 502 -335 7 -6 15
-11 17 -11 6 0 156 -98 171 -112 6 -6 4 -7 -5 -4 -75 24 -347 110 -355 112 -5
1 -30 9 -55 17 -70 24 -273 88 -290 92 -8 2 -64 20 -125 40 -60 20 -281 90
-490 157 -209 66 -387 124 -396 129 -14 7 -16 42 -16 304 0 162 2 295 5 295 3
0 78 -48 166 -107z m-3839 -17 c33 -10 69 -22 80 -26 23 -10 153 -51 175 -55
8 -2 16 -4 18 -5 1 -2 5 -3 10 -4 4 -1 81 -26 172 -55 91 -29 221 -71 290 -93
69 -21 133 -43 142 -49 10 -5 23 -9 29 -9 11 0 278 -84 489 -154 l95 -31 1
-297 c0 -164 -2 -298 -5 -298 -5 0 -192 121 -201 130 -3 3 -77 52 -165 110
-88 58 -164 109 -170 113 -5 5 -80 54 -165 109 -85 56 -296 195 -468 310 -172
114 -317 208 -321 208 -5 0 -11 3 -13 8 -1 4 -51 39 -110 77 -59 39 -107 73
-108 77 0 4 37 -6 83 -21 45 -15 109 -36 142 -45z m3295 52 c-19 -12 -37 -25
-40 -28 -3 -3 -30 -21 -60 -40 -30 -19 -57 -37 -60 -41 -3 -3 -9 -8 -15 -10
-10 -4 -482 -316 -953 -630 -139 -93 -257 -169 -262 -169 -6 0 -10 -4 -10 -8
0 -5 -12 -15 -27 -23 -16 -8 -30 -17 -33 -20 -13 -15 -243 -159 -247 -155 -4
4 -7 429 -4 562 1 30 2 31 119 67 64 21 180 58 257 83 77 25 145 47 150 48 6
1 91 28 190 60 99 32 234 75 300 96 66 21 215 68 330 105 116 37 248 80 295
95 104 35 115 36 70 8z m-3575 -672 c110 -36 295 -95 410 -131 116 -37 272
-87 349 -112 76 -25 144 -46 150 -48 6 -1 18 -5 26 -8 8 -3 96 -31 195 -62 99
-31 220 -70 268 -86 49 -16 94 -29 101 -29 7 0 20 -6 29 -12 14 -11 -337 -13
-1767 -13 -982 0 -1782 3 -1778 6 6 6 229 79 257 85 6 1 87 27 180 57 94 31
264 85 380 122 116 36 271 86 345 110 74 24 230 73 345 110 116 36 219 70 230
75 29 13 57 7 280 -64z m3956 60 c134 -44 335 -108 344 -110 6 -1 91 -29 190
-61 99 -32 186 -60 193 -62 25 -6 37 -10 52 -16 8 -3 60 -20 115 -37 55 -17
106 -33 113 -35 7 -2 16 -5 20 -6 4 -1 32 -10 62 -21 30 -11 64 -21 75 -24 11
-2 31 -8 45 -13 14 -5 113 -37 220 -71 107 -34 218 -69 245 -78 28 -9 55 -15
60 -13 6 1 7 -1 3 -5 -10 -10 -3558 -11 -3565 -1 -2 4 1 7 8 7 11 0 163 48
559 175 74 24 223 71 330 105 107 34 222 71 255 82 33 10 67 21 75 23 8 2 47
15 85 28 39 13 75 25 80 26 18 3 329 102 350 111 28 12 36 12 86 -4z"/>
</g>
</svg>
